<svg width="135" height="40" viewBox="0 0 135 40" fill="none" xmlns="http://www.w3.org/2000/svg">
<path d="M130 0.80044C131.113 0.80044 132.181 1.24283 132.969 2.03033C133.756 2.81782 134.199 3.88593 134.199 4.99975V35.0002C134.199 35.5518 134.09 36.098 133.879 36.6076C133.668 37.1171 133.358 37.5801 132.968 37.97C132.578 38.36 132.115 38.6692 131.606 38.8802C131.096 39.0912 130.55 39.1997 129.999 39.1996H5.00115C4.44965 39.1998 3.9035 39.0914 3.39389 38.8805C2.88428 38.6696 2.4212 38.3603 2.03109 37.9704C1.64098 37.5804 1.33149 37.1174 1.12029 36.6078C0.909088 36.0982 0.800315 35.5519 0.800184 35.0002V4.99975C0.800315 4.44807 0.909088 3.90183 1.12029 3.39221C1.33149 2.88259 1.64098 2.41958 2.03109 2.02962C2.4212 1.63967 2.88428 1.3304 3.39389 1.1195C3.9035 0.908594 4.44965 0.800177 5.00115 0.80044H130ZM130 0H4.99915C3.67468 0.00395765 2.40558 0.531955 1.46894 1.4687C0.532303 2.40545 0.00422141 3.67486 0 4.99975L0 35.0002C0.00422273 36.3253 0.532442 37.5949 1.4693 38.5316C2.40615 39.4684 3.67551 39.9963 5.00015 40H129.999C131.324 39.9966 132.593 39.4688 133.53 38.532C134.467 37.5952 134.996 36.3255 135 35.0002V4.99975C134.996 3.67451 134.467 2.40481 133.53 1.468C132.593 0.531194 131.324 0.00342996 129.999 0L130 0ZM30.0989 20.1401C30.1108 19.1613 30.3702 18.2014 30.8529 17.3499C31.3356 16.4985 32.0259 15.7831 32.8595 15.2704C32.3294 14.5162 31.6318 13.8951 30.8213 13.4561C30.0108 13.017 29.1096 12.7719 28.1885 12.74C26.218 12.5399 24.3086 13.9207 23.3084 13.9207C22.2881 13.9207 20.7488 12.76 19.0784 12.8C18.0041 12.834 16.9569 13.1456 16.0388 13.7046C15.1206 14.2636 14.3628 15.0509 13.8392 15.9898C11.5787 19.92 13.269 25.6801 15.4395 28.8499C16.5198 30.4107 17.7891 32.1397 19.4485 32.0796C21.0788 32.0096 21.689 31.0401 23.6494 31.0401C25.5889 31.0401 26.159 32.0806 27.8484 32.0406C29.5988 32.0106 30.699 30.4798 31.7393 28.9099C32.5218 27.8059 33.1229 26.5838 33.5197 25.2899C32.5075 24.8616 31.6436 24.145 31.0354 23.2294C30.4272 22.3137 30.1015 21.2394 30.0989 20.1401ZM26.8982 10.6599C27.854 9.52092 28.3245 8.05212 28.2085 6.56961C26.7546 6.7167 25.4108 7.41047 24.4486 8.51068C23.4978 9.59429 23.0158 11.011 23.1083 12.4498C23.8344 12.4577 24.5527 12.3006 25.2094 11.9906C25.866 11.6805 26.4437 11.2256 26.8992 10.6599H26.8982ZM53.6183 31.8605H51.3478L50.1085 27.9504H45.7805L44.6002 31.8605H42.3897L46.6697 18.5502H49.3203L53.6193 31.8605H53.6183ZM49.7284 26.3105L48.6082 22.8296C48.4881 22.4794 48.2581 21.6399 47.928 20.3202H47.888C47.758 20.8905 47.5479 21.731 47.2579 22.8296L46.1586 26.3105H49.7294H49.7284ZM64.6388 26.9408C64.7167 28.3547 64.2393 29.7431 63.3085 30.8099C62.9364 31.2174 62.4815 31.5407 61.9744 31.7581C61.4672 31.9756 60.9195 32.0821 60.3679 32.0706C59.8335 32.1145 59.2973 32.0108 58.8177 31.7709C58.3382 31.5309 57.9337 31.1639 57.6482 30.7099H57.6082V35.7697H55.4777V25.42C55.4777 24.3894 55.4477 23.3398 55.3977 22.2602H57.2682L57.3882 23.7801H57.4282C57.7509 23.2851 58.1848 22.8724 58.6952 22.5748C59.2056 22.2773 59.7784 22.1031 60.368 22.0662C60.9576 22.0292 61.5477 22.1306 62.0912 22.3621C62.6347 22.5937 63.1166 22.949 63.4986 23.3999C64.2937 24.4033 64.6988 25.6608 64.6388 26.9398V26.9408ZM62.4683 27.0209C62.5051 26.2021 62.2809 25.3927 61.8282 24.7096C61.623 24.4098 61.3464 24.1659 61.0233 24C60.7002 23.834 60.3409 23.7512 59.9778 23.7591C59.4557 23.7601 58.9495 23.9442 58.5484 24.2794C58.1183 24.6295 57.8223 25.1168 57.7083 25.6601C57.6482 25.8712 57.6142 26.0903 57.6082 26.3105V27.9103C57.5902 28.5567 57.8193 29.1861 58.2484 29.6703C58.6695 30.1476 59.2826 30.4117 59.9188 30.3907C60.2825 30.4055 60.6443 30.3291 60.9709 30.1683C61.2976 30.0075 61.5789 29.7675 61.7892 29.4702C62.2693 28.7468 62.5084 27.8883 62.4694 27.0199L62.4683 27.0209ZM75.6684 26.9408C75.7446 28.3527 75.2715 29.7394 74.3481 30.8099C73.9761 31.2173 73.5213 31.5405 73.0144 31.7579C72.5074 31.9754 71.9599 32.082 71.4084 32.0706C70.8738 32.1147 70.3375 32.0111 69.8577 31.7711C69.378 31.5312 68.9733 31.1641 68.6878 30.7099H68.6478V35.7697H66.5083V25.42C66.5083 24.3894 66.4883 23.3398 66.4283 22.2602H68.3087L68.4287 23.7801H68.4687C68.7915 23.2853 69.2253 22.8728 69.7356 22.5753C70.2459 22.2779 70.8186 22.1038 71.4081 22.0668C71.9975 22.0299 72.5875 22.1312 73.1309 22.3626C73.6743 22.5941 74.1562 22.9492 74.5381 23.3999C75.3297 24.4047 75.7312 25.662 75.6684 26.9398V26.9408ZM73.4979 27.0209C73.5329 26.2037 73.3126 25.3959 72.8677 24.7096C72.6614 24.4089 72.3832 24.1644 72.0585 23.9984C71.7338 23.8324 71.3728 23.7502 71.0083 23.7591C70.4859 23.7626 69.9806 23.9463 69.578 24.2794C69.151 24.6323 68.8551 25.1186 68.7378 25.6601C68.6848 25.8732 68.6548 26.0903 68.6478 26.3105V27.9103C68.6308 28.5567 68.8588 29.1861 69.2879 29.6703C69.708 30.1496 70.3222 30.4137 70.9583 30.3907C71.3219 30.4044 71.6832 30.3275 72.0097 30.1668C72.3362 30.0061 72.6177 29.7667 72.8287 29.4702C73.307 28.7455 73.5417 27.8872 73.4989 27.0199L73.4979 27.0209ZM88.0082 28.1205C88.0269 28.6405 87.9309 29.1582 87.7269 29.6369C87.5229 30.1156 87.216 30.5434 86.8279 30.89C85.8087 31.7157 84.5173 32.1298 83.2081 32.0506C82.0024 32.1101 80.805 31.8218 79.7583 31.2202L80.2484 29.4492C81.1786 30.0095 82.2429 30.3037 83.3291 30.2997C84.0002 30.3377 84.6639 30.1434 85.2086 29.7494C85.6507 29.4012 85.8987 28.8629 85.8787 28.2996C85.8853 28.0458 85.8398 27.7934 85.7452 27.5578C85.6506 27.3222 85.5088 27.1085 85.3286 26.9298C84.7912 26.4675 84.1649 26.1202 83.4882 25.9092C81.1576 25.0398 79.9984 23.7601 79.9984 22.0901C79.9863 21.5787 80.0898 21.0712 80.3011 20.6054C80.5124 20.1395 80.826 19.7274 81.2186 19.3997C82.1409 18.6637 83.3001 18.2901 84.4784 18.3491C85.5214 18.3124 86.5578 18.5286 87.4991 18.9794L86.969 20.7204C86.1844 20.3034 85.3066 20.0934 84.4184 20.1101C83.7875 20.0747 83.1652 20.2703 82.668 20.6604C82.3189 20.9645 82.1219 21.4068 82.1279 21.87C82.1229 22.3733 82.3479 22.8526 82.738 23.1707C83.3254 23.6158 83.9806 23.9635 84.6784 24.2003C85.6356 24.5379 86.5017 25.0923 87.209 25.8202C87.7552 26.4586 88.0402 27.28 88.0092 28.1205H88.0082ZM95.0588 23.8601H92.7083V28.5197C92.7083 29.7003 93.1284 30.3007 93.9586 30.3007C94.2746 30.3037 94.5897 30.2706 94.8988 30.2006L94.9588 31.8205C94.4254 31.9891 93.8676 32.0669 93.3084 32.0506C92.5683 32.0906 91.8471 31.8105 91.328 31.2802C90.7825 30.5327 90.5299 29.6111 90.6178 28.6898V23.8601H89.2175V22.2592H90.6178V20.5013L92.7083 19.8709V22.2612H95.0588V23.8611V23.8601ZM105.668 26.9798C105.716 28.3065 105.262 29.6025 104.398 30.6098C103.956 31.0958 103.412 31.4786 102.806 31.731C102.199 31.9834 101.544 32.0994 100.888 32.0706C100.258 32.0998 99.6289 31.9894 99.0462 31.7472C98.4635 31.5051 97.9415 31.1372 97.5174 30.6699C96.6697 29.6936 96.2233 28.4323 96.2681 27.1399C96.2124 25.8025 96.6746 24.495 97.5584 23.4899C97.9996 23.0124 98.5396 22.637 99.1408 22.3899C99.742 22.1428 100.39 22.0299 101.039 22.0591C101.674 22.033 102.307 22.1457 102.894 22.3893C103.481 22.633 104.008 23.0017 104.438 23.4699C105.283 24.4385 105.724 25.6953 105.668 26.9798ZM103.448 27.0499C103.476 26.2512 103.279 25.4608 102.878 24.7696C102.701 24.417 102.427 24.1218 102.089 23.9183C101.751 23.7148 101.363 23.6113 100.968 23.62C100.567 23.6102 100.17 23.7127 99.8241 23.916C99.4777 24.1193 99.195 24.4153 99.0077 24.7706C98.6091 25.477 98.4119 26.2792 98.4376 27.0899C98.4153 27.8847 98.6126 28.6703 99.0077 29.3601C99.1929 29.7129 99.4724 30.0072 99.815 30.2104C100.158 30.4136 100.55 30.5176 100.948 30.5108C101.344 30.5125 101.732 30.4039 102.07 30.1971C102.407 29.9903 102.68 29.6936 102.859 29.3401C103.269 28.6478 103.473 27.8543 103.449 27.0499H103.448ZM112.598 24.1303C112.373 24.0976 112.145 24.0809 111.918 24.0802C111.581 24.0632 111.245 24.1323 110.942 24.2811C110.64 24.43 110.38 24.6535 110.187 24.9307C109.811 25.4869 109.622 26.1487 109.648 26.8197V31.8605H107.518L107.538 25.2799C107.538 24.1793 107.518 23.1697 107.458 22.2602H109.318L109.398 24.1003H109.458C109.658 23.5019 110.026 22.9746 110.518 22.5794C110.961 22.2428 111.502 22.0601 112.059 22.0591C112.239 22.0621 112.419 22.0751 112.599 22.0992V24.1303H112.598ZM122.128 26.5996C122.137 26.9248 122.11 27.25 122.048 27.5702H115.659C115.642 27.9784 115.717 28.3852 115.878 28.7607C116.039 29.1362 116.282 29.4709 116.589 29.7404C117.181 30.2092 117.924 30.4474 118.678 30.4107C119.562 30.4212 120.44 30.2686 121.269 29.9605L121.599 31.4403C120.578 31.8585 119.481 32.0596 118.378 32.0306C117.736 32.0679 117.092 31.9706 116.489 31.7449C115.887 31.5192 115.338 31.1701 114.877 30.7199C114.441 30.2478 114.103 29.6934 113.883 29.0889C113.663 28.4845 113.566 27.8423 113.598 27.2C113.552 25.8902 113.974 24.6069 114.788 23.58C115.188 23.0798 115.699 22.68 116.281 22.4125C116.862 22.145 117.498 22.0171 118.138 22.0391C118.751 22.0069 119.362 22.1315 119.913 22.4011C120.464 22.6707 120.938 23.0764 121.289 23.58C121.87 24.4775 122.163 25.531 122.129 26.5996H122.128ZM120.098 26.0493C120.122 25.4736 119.976 24.9035 119.677 24.4104C119.502 24.1211 119.251 23.8852 118.952 23.7283C118.652 23.5713 118.316 23.4993 117.978 23.5199C117.647 23.5148 117.319 23.5915 117.024 23.7434C116.729 23.8952 116.476 24.1175 116.288 24.3904C115.921 24.8708 115.702 25.4476 115.658 26.0503H120.099L120.098 26.0493ZM49.0283 10.3607C49.062 10.8551 48.9843 11.3508 48.8008 11.8112C48.6173 12.2715 48.3327 12.6847 47.968 13.0202C47.1646 13.6155 46.176 13.9063 45.1784 13.8406C44.6683 13.8476 44.1561 13.8206 43.648 13.7606V7.32903C44.2471 7.23768 44.8525 7.19418 45.4584 7.19896C46.3819 7.13528 47.2986 7.39726 48.049 7.93937C48.3818 8.24452 48.6423 8.61997 48.8119 9.03845C48.9815 9.45693 49.0557 9.90793 49.0293 10.3587L49.0283 10.3607ZM47.918 10.3907C47.9564 10.0693 47.9212 9.74333 47.815 9.43752C47.7089 9.13171 47.5346 8.85406 47.3053 8.62559C47.0761 8.39712 46.7978 8.22382 46.4917 8.1188C46.1856 8.01378 45.8596 7.97979 45.5385 8.01941C45.2567 8.0135 44.9751 8.03698 44.6983 8.08945V12.9801C44.9343 13.0052 45.1714 13.0152 45.4084 13.0102C45.7465 13.033 46.0856 12.9852 46.4042 12.8698C46.7228 12.7544 47.0138 12.5739 47.2589 12.3398C47.4922 12.0745 47.6706 11.7655 47.784 11.4308C47.8973 11.0961 47.9432 10.7423 47.919 10.3897L47.918 10.3907ZM54.8786 11.3903C54.9076 12.0412 54.6856 12.6784 54.2585 13.1702C54.0417 13.4087 53.7754 13.5968 53.4781 13.7213C53.1809 13.8458 52.86 13.9036 52.5381 13.8906C52.2277 13.905 51.918 13.8506 51.6311 13.7313C51.3442 13.6119 51.0873 13.4306 50.8787 13.2003C50.4637 12.7213 50.2457 12.1027 50.2685 11.4693C50.2435 10.8119 50.4686 10.1686 50.8987 9.67032C51.1175 9.43845 51.3832 9.25601 51.6782 9.13522C51.9732 9.01443 52.2906 8.95808 52.6091 8.96993C52.921 8.95639 53.232 9.01116 53.5206 9.1304C53.8091 9.24965 54.0681 9.4305 54.2795 9.66031C54.6896 10.1406 54.9046 10.7579 54.8786 11.3903ZM53.7984 11.4203C53.8058 11.0285 53.7092 10.6418 53.5183 10.2997C53.4243 10.1299 53.2866 9.9885 53.1195 9.89C52.9524 9.79151 52.762 9.73957 52.5681 9.73957C52.3741 9.73957 52.1837 9.79151 52.0166 9.89C51.8495 9.9885 51.7118 10.1299 51.6179 10.2997C51.4178 10.6459 51.3178 11.0401 51.3278 11.4403C51.3178 11.8335 51.4188 12.2207 51.6179 12.5609C51.8019 12.9141 52.171 13.1312 52.5681 13.1202C52.9642 13.1222 53.3282 12.9021 53.5083 12.5499C53.7073 12.2067 53.8084 11.8165 53.7984 11.4193V11.4203ZM62.7384 9.06999L61.2681 13.7796H60.3078L59.6877 11.7405C59.5364 11.2374 59.4132 10.7263 59.3186 10.2096H59.2986C59.2074 10.7281 59.0804 11.2396 58.9185 11.7405L58.2684 13.7796H57.2982L55.9078 9.06999H56.9881L57.5182 11.3102C57.6482 11.8405 57.7583 12.3508 57.8383 12.82H57.8583C57.9383 12.4298 58.0683 11.9296 58.2484 11.3192L58.9185 9.06999H59.7687L60.4089 11.2702C60.5689 11.8105 60.6889 12.3308 60.789 12.8301H60.819C60.897 12.3048 61.004 11.7835 61.139 11.2692L61.7092 9.06999H62.7394H62.7384ZM68.1687 13.7796H67.1284V11.0801C67.1284 10.2496 66.8083 9.83941 66.1782 9.83941C66.0337 9.83289 65.8898 9.86026 65.7578 9.91933C65.6258 9.9784 65.5094 10.0675 65.418 10.1796C65.228 10.4067 65.125 10.6939 65.128 10.99V13.7796H64.0777V10.4197C64.0777 9.9995 64.0677 9.54925 64.0377 9.06999H64.9579L65.0079 9.8104H65.0379C65.164 9.57427 65.35 9.37716 65.5781 9.24008C65.8631 9.06198 66.1932 8.96793 66.5283 8.96993C66.9384 8.95593 67.3365 9.11101 67.6285 9.40017C68.0156 9.8234 68.2117 10.3877 68.1687 10.96V13.7796ZM71.0593 13.7796H70.0191V6.9098H71.0593V13.7796ZM77.2287 11.3903C77.2578 12.0412 77.0358 12.6784 76.6086 13.1702C76.3919 13.4087 76.1255 13.5968 75.8283 13.7213C75.531 13.8458 75.2102 13.9036 74.8882 13.8906C74.5777 13.9052 74.2678 13.8508 73.9807 13.7315C73.6936 13.6121 73.4365 13.4307 73.2278 13.2003C72.8129 12.7213 72.5948 12.1027 72.6177 11.4693C72.5927 10.8119 72.8177 10.1686 73.2478 9.67032C73.4666 9.43845 73.7324 9.25601 74.0274 9.13522C74.3223 9.01443 74.6397 8.95808 74.9582 8.96993C75.2701 8.95639 75.5812 9.01116 75.8697 9.1304C76.1582 9.24965 76.4172 9.4305 76.6286 9.66031C77.0397 10.1406 77.2547 10.7579 77.2287 11.3903ZM76.1385 11.4203C76.1508 11.028 76.0539 10.64 75.8584 10.2997C75.7714 10.1284 75.6381 9.98513 75.4736 9.88605C75.3092 9.78698 75.1202 9.73615 74.9282 9.73936C74.7304 9.73316 74.5347 9.78233 74.3633 9.88132C74.1919 9.98031 74.0515 10.1252 73.958 10.2997C73.7649 10.6479 73.6679 11.0421 73.6779 11.4403C73.6699 11.8315 73.7669 12.2187 73.958 12.5609C74.148 12.9131 74.5181 13.1292 74.9182 13.1202C75.3123 13.1242 75.6734 12.9031 75.8484 12.5499C76.0515 12.2097 76.1525 11.8165 76.1385 11.4193V11.4203ZM82.3089 13.7796H81.3587L81.2887 13.2393H81.2587C81.0997 13.4527 80.8906 13.6237 80.6498 13.7371C80.4091 13.8506 80.1441 13.9029 79.8783 13.8896C79.6782 13.8976 79.4786 13.8634 79.2925 13.7893C79.1065 13.7152 78.938 13.6028 78.7981 13.4594C78.6776 13.3313 78.5837 13.1805 78.5218 13.0158C78.46 12.8511 78.4315 12.6757 78.438 12.4999C78.4283 12.2367 78.4901 11.9757 78.617 11.7449C78.7438 11.5141 78.9308 11.322 79.1582 11.1892C79.7774 10.8463 80.4826 10.6903 81.1886 10.7399V10.6499C81.2045 10.5194 81.1896 10.3871 81.1452 10.2634C81.1007 10.1398 81.0279 10.0283 80.9327 9.93781C80.8374 9.84736 80.7222 9.78048 80.5965 9.74255C80.4707 9.70461 80.3378 9.69666 80.2084 9.71935C79.773 9.71395 79.3455 9.83565 78.9781 10.0695L78.7681 9.37916C79.2595 9.09423 79.8208 8.95249 80.3885 8.96993C80.6474 8.94031 80.9097 8.97127 81.1546 9.06037C81.3995 9.14947 81.6204 9.29427 81.7998 9.48336C81.9793 9.67244 82.1123 9.90064 82.1885 10.15C82.2647 10.3993 82.2819 10.6629 82.2389 10.92V12.66C82.2305 13.0348 82.2539 13.4097 82.3089 13.7806V13.7796ZM81.2186 12.1597V11.4393C80.0584 11.4193 79.4783 11.7294 79.4783 12.3898C79.4715 12.4904 79.4858 12.5913 79.5202 12.6861C79.5547 12.7808 79.6085 12.8674 79.6783 12.9401C79.8233 13.0622 80.0084 13.1262 80.1984 13.1202C80.4285 13.1202 80.6525 13.0462 80.8386 12.9101C81.0258 12.7762 81.1546 12.5757 81.1986 12.3498C81.2119 12.2873 81.2186 12.2236 81.2186 12.1597ZM88.2583 13.7806H87.3281L87.278 13.0302H87.248C87.1098 13.3071 86.8924 13.5367 86.6235 13.6899C86.3546 13.8431 86.0463 13.913 85.7377 13.8906C85.4656 13.8952 85.1961 13.8371 84.95 13.7209C84.7038 13.6046 84.4878 13.4334 84.3184 13.2203C83.9298 12.7294 83.7309 12.1149 83.7582 11.4893C83.7261 10.8157 83.9433 10.1538 84.3684 9.6303C84.5486 9.41995 84.7728 9.25177 85.0251 9.13766C85.2775 9.02355 85.5518 8.96629 85.8287 8.96993C86.0863 8.94566 86.3456 8.99253 86.5784 9.10544C86.8112 9.21834 87.0085 9.39296 87.149 9.61029H87.169V6.9098H88.2193V12.5099C88.2193 12.9701 88.2293 13.4004 88.2593 13.7806H88.2583ZM87.168 11.7995V11.0101C87.168 10.9 87.162 10.7899 87.148 10.6799C87.0898 10.4354 86.957 10.2151 86.7679 10.0495C86.5769 9.87563 86.326 9.78241 86.0678 9.78938C85.8866 9.782 85.7064 9.82028 85.5439 9.9007C85.3814 9.98112 85.2416 10.1011 85.1376 10.2496C84.9056 10.6059 84.7902 11.0255 84.8075 11.4503C84.7875 11.8515 84.9005 12.2487 85.1276 12.5809C85.3356 12.8811 85.6817 13.0592 86.0478 13.0502C86.2056 13.0545 86.3621 13.0214 86.5047 12.9536C86.6472 12.8857 86.7717 12.7851 86.8679 12.66C87.072 12.4208 87.179 12.1137 87.168 11.7995ZM97.2183 11.3893C97.2476 12.0405 97.0256 12.6781 96.5982 13.1702C96.3814 13.4087 96.1151 13.5968 95.8179 13.7213C95.5206 13.8458 95.1998 13.9036 94.8778 13.8906C94.5673 13.9052 94.2574 13.8508 93.9703 13.7315C93.6832 13.6121 93.4261 13.4307 93.2174 13.2003C92.8028 12.7211 92.5852 12.1026 92.6083 11.4693C92.5833 10.8119 92.8083 10.1686 93.2384 9.67032C93.4572 9.43845 93.723 9.25601 94.0179 9.13522C94.3129 9.01443 94.6303 8.95808 94.9488 8.96993C95.2607 8.95639 95.5718 9.01116 95.8603 9.1304C96.1488 9.24965 96.4078 9.4305 96.6192 9.66031C97.0293 10.1406 97.2443 10.7579 97.2183 11.3903V11.3893ZM96.1381 11.4193C96.1454 11.0279 96.0487 10.6415 95.858 10.2997C95.7679 10.1288 95.6325 9.98617 95.4666 9.88732C95.3008 9.78847 95.1109 9.73727 94.9178 9.73936C94.7204 9.73554 94.5257 9.78571 94.3547 9.88445C94.1838 9.98319 94.043 10.1268 93.9476 10.2997C93.7555 10.6479 93.6585 11.0421 93.6675 11.4403C93.6595 11.8315 93.7565 12.2187 93.9476 12.5609C94.0411 12.7318 94.1791 12.8742 94.3469 12.973C94.5147 13.0719 94.706 13.1235 94.9008 13.1225C95.0955 13.1215 95.2864 13.0678 95.4531 12.9672C95.6198 12.8666 95.7563 12.7227 95.848 12.5509C96.0471 12.2067 96.1481 11.8165 96.1381 11.4203V11.4193ZM102.859 13.7806H101.808V11.0791C101.808 10.2496 101.498 9.84041 100.858 9.84041C100.714 9.83596 100.571 9.86425 100.439 9.92317C100.307 9.9821 100.191 10.0701 100.098 10.1806C99.9079 10.4067 99.8049 10.6939 99.8079 10.99V13.7796H98.7577V10.4197C98.7577 9.9995 98.7477 9.54925 98.7277 9.06999H99.6479L99.6979 9.8104H99.7279C99.8529 9.57427 100.04 9.37716 100.268 9.24008C100.552 9.05998 100.882 8.96593 101.218 8.96993C101.628 8.95793 102.025 9.11301 102.318 9.40017C102.706 9.8234 102.901 10.3877 102.859 10.96V13.7796V13.7806ZM109.908 9.86042H108.758V12.1497C108.758 12.73 108.958 13.0202 109.368 13.0202C109.526 13.0217 109.684 13.0049 109.838 12.9701L109.858 13.7606C109.598 13.8494 109.323 13.8901 109.048 13.8806C108.868 13.8931 108.688 13.8655 108.52 13.7997C108.352 13.734 108.201 13.6317 108.078 13.5004C107.809 13.1341 107.685 12.6819 107.728 12.2297V9.86042H107.038V9.06999H107.728V8.20952L108.758 7.89934V9.06999H109.908V9.86042ZM115.459 13.7796H114.408V11.1001C114.408 10.2596 114.088 9.83941 113.458 9.83941C113.234 9.83111 113.013 9.89865 112.831 10.0311C112.65 10.1636 112.518 10.3534 112.458 10.5698C112.423 10.6935 112.406 10.8215 112.408 10.95V13.7796H111.368V6.9098H112.408V9.75036H112.428C112.724 9.25009 113.268 8.95192 113.848 8.96993C114.048 8.96614 114.246 9.00224 114.432 9.07612C114.617 9.15 114.786 9.26016 114.928 9.40017C115.308 9.83541 115.499 10.4037 115.459 10.98V13.7796ZM121.178 11.2002C121.183 11.3602 121.169 11.5223 121.138 11.6804H117.998C117.981 12.0876 118.15 12.4819 118.458 12.75C118.747 12.9801 119.109 13.0972 119.478 13.0802C119.916 13.0842 120.349 13.0062 120.759 12.8501L120.919 13.5805C120.419 13.7866 119.879 13.8856 119.338 13.8706C119.023 13.8896 118.707 13.8424 118.411 13.7321C118.114 13.6219 117.844 13.4509 117.618 13.2303C117.403 12.9983 117.236 12.7257 117.128 12.4284C117.02 12.1312 116.972 11.8153 116.988 11.4993C116.963 10.8561 117.169 10.2252 117.568 9.72035C117.766 9.47556 118.018 9.28028 118.305 9.15002C118.591 9.01976 118.904 8.9581 119.218 8.96993C119.518 8.95305 119.817 9.01316 120.086 9.14452C120.356 9.27588 120.587 9.47412 120.759 9.72035C121.049 10.1576 121.195 10.6749 121.179 11.2002H121.178ZM120.178 10.93C120.195 10.6499 120.125 10.3697 119.978 10.1296C119.892 9.98805 119.769 9.8724 119.623 9.79488C119.477 9.71737 119.313 9.6809 119.147 9.68933C118.983 9.68487 118.819 9.72193 118.673 9.79712C118.526 9.8723 118.401 9.98319 118.308 10.1196C118.132 10.356 118.025 10.6364 117.998 10.93H120.179H120.178Z" fill="white"/>
</svg>
