<?xml version="1.0" encoding="utf-8"?><!-- Uploaded to: SVG Repo, www.svgrepo.com, Generator: SVG Repo Mixer Tools -->
<svg version="1.1" id="designs" xmlns="http://www.w3.org/2000/svg" xmlns:xlink="http://www.w3.org/1999/xlink" 
	 width="800px" height="800px" viewBox="0 0 32 32" xml:space="preserve">
<style type="text/css">
	.scienceandfiction_een{fill:#2B4099;}
	.scienceandfiction_twee{fill:#CC2954;}
</style>
<path class="scienceandfiction_een" d="M28,14h-4v-2h-1.333L22,10l-2-1l1-2l-2-2l2-2V1h-5.455L10,8l-0.8,4H8v2H4v1h2.5L6,16v2l-2,3
	v5l2,3h5.865l2.457,2h3.355l2.453-2H26l2-3v-5l-2-3v-2l-0.5-1H28V14z M23,14h-5v-1h5V14z M15,14v-1h2v1H15z M10.933,8.432L16.029,2
	H20v0.586L17.586,5H17v1h1.586l1.198,1.198L19,9h-1v1h1.764l1.418,0.709L21.613,12H10.22L10.933,8.432z M9,13h5v1H9V13z M6.535,28
	L5,25.697v-4.395l2-3v-2.067L7.618,15h5.986l-1.014,1H9v5l1.075,6.53L10.636,28H6.535z M17.322,30h-2.645L11,27l-1-6v-4h3l2.028-2
	H17l2,2h3v4l-1,6L17.322,30z M25,16.236v2.067l2,3v4.395L25.465,28H21.36l0.565-0.468L23,21v-5h-3.586l-1-1h5.968L25,16.236z"/>
<path class="scienceandfiction_twee" d="M14,26h4v1h-1v1h-2v-1h-1V26z M13,22c-1.105,0-2-0.895-2-2v-2h2c1.105,0,2,0.895,2,2
	S14.105,22,13,22z M14,20c0-0.551-0.449-1-1-1h-1v1c0,0.551,0.449,1,1,1S14,20.551,14,20z M21,18v2c0,1.105-0.895,2-2,2
	s-2-0.895-2-2s0.895-2,2-2H21z M20,19h-1c-0.551,0-1,0.449-1,1s0.449,1,1,1s1-0.449,1-1V19z M19,25h1v-1h-1V25z M14,25h3v-1h-2
	v-0.349l1.916-2.874l-0.832-0.555L14,23.349V25z"/>
</svg>