<?xml version="1.0" encoding="utf-8"?><!-- Uploaded to: SVG Repo, www.svgrepo.com, Generator: SVG Repo Mixer Tools -->
<svg version="1.1" id="designs" xmlns="http://www.w3.org/2000/svg" xmlns:xlink="http://www.w3.org/1999/xlink" 
	 width="800px" height="800px" viewBox="0 0 32 32" xml:space="preserve">
<style type="text/css">
	.scienceandfiction_een{fill:#2B4099;}
	.scienceandfiction_twee{fill:#CC2954;}
</style>
<path class="scienceandfiction_twee" d="M14,14h-1v1h1V14L14,14z M9,13.5C9,13.776,9.224,14,9.5,14s0.5-0.224,0.5-0.5
	S9.776,13,9.5,13S9,13.224,9,13.5z M9.5,12c0.828,0,1.5,0.672,1.5,1.5S10.328,15,9.5,15S8,14.328,8,13.5S8.672,12,9.5,12L9.5,12z
	 M13,20.5c0,0.276,0.224,0.5,0.5,0.5s0.5-0.224,0.5-0.5S13.776,20,13.5,20S13,20.224,13,20.5z M13.5,19c0.828,0,1.5,0.672,1.5,1.5
	S14.328,22,13.5,22S12,21.328,12,20.5S12.672,19,13.5,19L13.5,19z M20,18.5c0,0.276,0.224,0.5,0.5,0.5s0.5-0.224,0.5-0.5
	S20.776,18,20.5,18S20,18.224,20,18.5z M20.5,17c0.828,0,1.5,0.672,1.5,1.5S21.328,20,20.5,20S19,19.328,19,18.5S19.672,17,20.5,17
	L20.5,17z M19,22h-1v1h1V22L19,22z M17,17h-1v1h1V17L17,17z M16,10h-1v1h1V10L16,10z M11,18h-1v1h1V18L11,18z M25.492,14.86
	c-0.85,0.76-1.92,1.14-2.99,1.14c-1,0-2-0.36-2.82-1.03l-0.95,0.95l-0.7-0.71l0.93-0.93c-0.38-0.49-0.83-1.52-0.92-2.19
	c-0.16-1.18,0.14-2.37,0.89-3.33c0.42,0.06,0.82,0.14,1.19,0.24c-0.65,0.83-1.21,2.05-1.09,2.96c0.08,0.58,0.41,1.23,0.67,1.58
	l3.37-3.37c0.31,0.16,0.6,0.34,0.9,0.51l-3.58,3.58c0.6,0.47,1.34,0.74,2.11,0.74c0.87,0,2.15-0.68,2.85-1.31
	C25.432,14.11,25.482,14.51,25.492,14.86z"/>
<path class="scienceandfiction_een" d="M16,25.14c5.53,0,10-4.48,10-10c0-1.661-0.68-3.71-0.98-4.33V10.8
	C22.708,8.917,19.542,8,16,8c-3.53,0-6.71,0.99-9.02,2.8v0.01C6.35,12.12,6,13.58,6,15.14C6,20.66,10.47,25.14,16,25.14z
	 M7.79,11.44C9.904,9.865,12.808,9,16,9c4,0,6,1,8.211,2.439C24.43,11.921,25,14,25,15.14c0,4.963-4.037,9-9,9s-9-4.037-9-9
	C7,13.844,7.266,12.6,7.79,11.44z M26.93,27l-0.776-5.286C27.068,20.186,28,16.89,28,15.039C28,7.882,23.135,2,16,2
	S4,7.882,4,15.039c0,2.777,0.932,5.148,1.846,6.675L5.07,27H3v3h26v-3H26.93z M6.704,21.2C6.068,20.136,5,17.921,5,15.039
	C5,8.175,9.729,3,16,3s11,5.175,11,12.039c0,1.641-0.86,4.751-1.704,6.162l-0.183,0.306L25.919,27H25v-2.5
	c0-0.828-0.672-1.5-1.5-1.5S22,23.672,22,24.5V27H10v-2.5c0-0.828-0.672-1.5-1.5-1.5S7,23.672,7,24.5V27H6.081l0.807-5.494
	L6.704,21.2z M23,27v-2.5c0-0.276,0.224-0.5,0.5-0.5s0.5,0.224,0.5,0.5V27H23z M8,27v-2.5C8,24.224,8.224,24,8.5,24S9,24.224,9,24.5
	V27H8z M28,29H4v-1h24V29z"/>
</svg>