<svg width="135" height="40" viewBox="0 0 135 40" fill="none" xmlns="http://www.w3.org/2000/svg">
<path d="M130.016 39.595H5.38524C2.87581 39.595 0.807344 37.4957 0.807344 35.0153V4.9849C0.808503 3.77088 1.29117 2.60689 2.14945 1.74829C3.00772 0.889708 4.17151 0.40662 5.38551 0.405H130.017C131.231 0.406388 132.395 0.88938 133.253 1.748C134.112 2.60667 134.595 3.77086 134.596 4.98509V35.0149C134.595 36.2291 134.112 37.3933 133.253 38.252C132.395 39.1107 131.231 39.5937 130.016 39.595Z" stroke="white" stroke-width="0.81"/>
<path d="M47.6689 10.2697C47.6689 11.1118 47.4262 11.7714 46.939 12.2521C46.3926 12.8524 45.6637 13.1535 44.7523 13.1535C44.3456 13.1594 43.9419 13.0826 43.5658 12.9276C43.1898 12.7727 42.8491 12.5428 42.5646 12.2521C41.957 11.6518 41.6523 10.9311 41.6523 10.0298C41.6523 9.12938 41.9561 8.40867 42.5646 7.80748C42.8493 7.51706 43.19 7.28749 43.566 7.13271C43.9421 6.97793 44.3457 6.90116 44.7523 6.90705C45.1774 6.90705 45.6025 6.96726 45.9674 7.14698C46.3324 7.32762 46.6964 7.50734 46.8788 7.80839L46.3314 8.34846C45.9063 7.8686 45.3599 7.62776 44.6912 7.62776C44.0836 7.62776 43.5371 7.8686 43.0509 8.28825C42.5646 8.70881 42.3822 9.31001 42.3822 10.0307C42.3822 10.7514 42.6248 11.2906 43.0509 11.7714C43.5371 12.1919 44.0836 12.4328 44.6912 12.4328C45.3599 12.4328 45.9063 12.1919 46.3324 11.7714C46.6352 11.4712 46.8186 11.0506 46.8186 10.5708H44.63V9.85008H47.6077C47.6689 9.96959 47.6689 10.09 47.6689 10.2697Z" fill="white"/>
<path d="M44.6944 13.2138C43.8441 13.2138 43.055 12.9127 42.4474 12.3124C41.8389 11.7121 41.5352 10.9312 41.5352 10.0299C41.5352 9.12946 41.8389 8.34854 42.4474 7.74735C43.055 7.14707 43.7839 6.84692 44.6953 6.84692C45.1204 6.84692 45.5465 6.90713 45.9716 7.08777C46.3356 7.24285 46.6649 7.46728 46.9432 7.74826V7.80756L46.3365 8.40875L46.2754 8.34854C45.9105 7.86868 45.3631 7.68805 44.6953 7.68805C44.0877 7.68805 43.5413 7.92798 43.1152 8.34854C42.6901 8.76911 42.4474 9.36939 42.4474 10.0299C42.4474 10.7515 42.6901 11.2907 43.1152 11.7121C43.3217 11.9214 43.5677 12.0876 43.839 12.201C44.1102 12.3144 44.4013 12.3727 44.6953 12.3726C45.364 12.3726 45.9105 12.1327 46.3365 11.7121C46.5783 11.4111 46.7616 11.0507 46.8228 10.5709H44.6342V9.72974H47.6119V9.78995C47.673 9.91037 47.673 10.0901 47.673 10.2698C47.673 11.1119 47.4303 11.7714 46.9432 12.3133C46.3967 12.8534 45.6067 13.2138 44.6953 13.2138H44.6944ZM44.6944 6.90713C44.2879 6.90131 43.8845 6.97812 43.5086 7.1329C43.1327 7.28768 42.7922 7.51721 42.5077 7.80756C41.9001 8.40875 41.5954 9.12946 41.5954 10.0299C41.5954 10.871 41.9001 11.6519 42.5077 12.2522C42.7922 12.5428 43.1329 12.7726 43.5089 12.9275C43.885 13.0825 44.2886 13.1594 44.6953 13.1535C45.6076 13.1535 46.3365 12.8525 46.8839 12.2522C47.3692 11.7714 47.6119 11.1119 47.6119 10.2698C47.6119 10.1503 47.6119 9.96967 47.5517 9.85016H44.7564V10.4504H46.9432V10.5107C46.883 11.0507 46.7014 11.4713 46.4569 11.7714C46.0327 12.2522 45.4242 12.4328 44.7564 12.4328C44.1443 12.4334 43.5559 12.1962 43.1152 11.7714C42.629 11.2916 42.3854 10.7506 42.3854 10.0299C42.3854 9.30918 42.629 8.7089 43.1152 8.28833C43.6015 7.86868 44.1479 7.62784 44.7564 7.62784C45.4242 7.62784 45.9716 7.86868 46.3967 8.28833L46.8228 7.80756C46.5792 7.56763 46.2754 7.3277 45.9105 7.20728C45.5456 7.02756 45.1204 6.90622 44.6953 6.90622L44.6944 6.90713ZM52.2299 7.74735H49.4967V9.67044H51.927V10.3911H49.4957V12.3133H52.2308V13.034H48.7668V7.02756H52.2308V7.74826L52.2299 7.74735Z" fill="white"/>
<path d="M52.3079 13.0332H48.7227V6.96655H52.3079V7.80768H49.5738V9.61035H52.0051V10.4506H49.5738V12.2523H52.3079V13.0332ZM48.844 12.973H52.2468V12.3125H49.5127V10.3301H51.943V9.72986H49.5127V7.74747H52.2468V7.08697H48.844V12.973ZM55.5283 12.973H54.7383V7.68726H53.0971V6.96655H57.2297V7.68726H55.5283V12.973Z" fill="white"/>
<path d="M55.5909 13.0332H54.7398V7.80768H53.0977V6.96655H57.2914V7.80768H55.6511V13.0332H55.5909ZM54.8009 12.973H55.4696V7.68817H57.1099V7.02676H53.0995V7.68817H54.7398V12.973H54.8009ZM60.1487 12.973V6.96655H60.9378V12.973H60.1487Z" fill="white"/>
<path d="M60.9792 13.0332H60.1289V6.96655H60.9792V13.0332ZM60.1891 12.973H60.8578V7.08789H60.19V12.973H60.1891ZM64.3218 12.973H63.5317V7.68726H61.8303V6.96655H65.962V7.68817H64.2616L64.3218 12.973Z" fill="white"/>
<path d="M64.3391 13.033H63.5491V7.80748H61.8477V6.96636H66.0405V7.80748H64.3391V13.033ZM63.6093 12.9728H64.2789V7.68797H65.9794V7.02657H61.969V7.68797H63.6704V12.9728H63.6102H63.6093ZM73.8177 12.2521C73.5334 12.5428 73.1929 12.7726 72.817 12.9276C72.4411 13.0825 72.0376 13.1594 71.631 13.1535C71.2243 13.1594 70.8206 13.0826 70.4445 12.9276C70.0685 12.7727 69.7278 12.5428 69.4433 12.2521C68.8358 11.6518 68.5922 10.9311 68.5922 10.0298C68.5922 9.12938 68.8969 8.40868 69.4433 7.80748C69.728 7.51702 70.0686 7.28743 70.4447 7.13264C70.8208 6.97786 71.2244 6.90111 71.631 6.90706C72.4822 6.90706 73.2111 7.20811 73.8196 7.80748C74.4262 8.40868 74.73 9.12938 74.73 10.0298C74.6698 10.8709 74.3651 11.6518 73.8177 12.2521ZM69.9907 11.7121C70.4158 12.1317 70.9623 12.3726 71.631 12.3726C72.2997 12.3726 72.7859 12.1326 73.2722 11.7121C73.6973 11.2915 73.94 10.6903 73.94 9.9696C73.94 9.24889 73.6973 8.70882 73.2722 8.22805C72.8462 7.8084 72.2997 7.56755 71.6301 7.56755C70.9623 7.56755 70.477 7.80748 69.9907 8.22805C69.5647 8.64861 69.322 9.2498 69.322 9.97051C69.322 10.6912 69.5045 11.2915 69.9907 11.7121Z" fill="white"/>
<path d="M71.5694 13.2138C70.658 13.2138 69.9291 12.9127 69.3206 12.3124C68.7139 11.7121 68.4102 10.9312 68.4102 10.0299C68.4102 9.12946 68.7139 8.40875 69.3206 7.74735C69.9291 7.14707 70.658 6.84692 71.5703 6.84692C72.4206 6.84692 73.2106 7.14798 73.8182 7.74735C74.4258 8.34854 74.7305 9.12946 74.7305 10.0299C74.7305 10.9312 74.4258 11.6519 73.8182 12.3124C73.2106 12.8534 72.4817 13.2138 71.5694 13.2138ZM71.5694 6.90713C71.1629 6.90131 70.7595 6.97812 70.3836 7.1329C70.0077 7.28768 69.6672 7.51721 69.3827 7.80756C68.8353 8.40875 68.5315 9.12946 68.5315 10.0299C68.5315 10.871 68.8353 11.6519 69.3827 12.2522C69.9893 12.8525 70.658 13.1535 71.5694 13.1535C72.4206 13.1535 73.1495 12.8525 73.6968 12.2522C74.2442 11.6519 74.5471 10.9312 74.5471 10.0299C74.5471 9.18967 74.2433 8.46805 73.6968 7.86777C73.1495 7.20728 72.4817 6.90713 71.5694 6.90713ZM71.5694 12.4328C70.9016 12.4328 70.3542 12.1929 69.9291 11.7714C69.5031 11.2916 69.2604 10.7506 69.2604 10.0299C69.2604 9.30918 69.5031 8.7089 69.9291 8.28833C70.3542 7.80756 70.9618 7.62784 71.5694 7.62784C72.2381 7.62784 72.7846 7.86868 73.2106 8.28833C73.6357 8.76911 73.8784 9.31009 73.8784 10.0308C73.8784 10.7515 73.6357 11.3518 73.2106 11.7714C72.7846 12.1929 72.2381 12.4328 71.5694 12.4328ZM71.5694 7.62784C70.9618 7.62784 70.4154 7.86868 69.9893 8.28833C69.5642 8.7089 69.3206 9.31009 69.3206 9.96967C69.3206 10.6311 69.5642 11.2314 69.9893 11.6519C70.1957 11.8613 70.4417 12.0276 70.713 12.1411C70.9842 12.2546 71.2753 12.3131 71.5694 12.3131C71.8634 12.3131 72.1545 12.2546 72.4258 12.1411C72.6971 12.0276 72.9431 11.8613 73.1495 11.6519C73.5746 11.2323 73.8182 10.6302 73.8182 9.96967C73.8182 9.30918 73.5755 8.7089 73.1495 8.28833C72.7846 7.86868 72.2381 7.62784 71.5694 7.62784ZM75.7623 12.9729V6.96643H76.6736L79.5911 11.6519H79.6513L79.5911 10.5107V7.02756H80.3811V13.0331H79.5911L76.5523 8.16882H76.4921L76.5523 9.30918V13.034L75.7623 12.9729Z" fill="white"/>
<path d="M76.5469 13.0332H75.6957V6.96655H76.7293L79.5848 11.5316V6.96655H80.435V13.0332H79.5848L76.6071 8.22915L76.6673 9.25V13.0342H76.5469V13.0332ZM75.817 12.973H76.4857V9.3093L76.4255 8.10873H76.5469L79.5848 12.973H80.3146V7.08697H79.645V10.571L79.7061 11.7716H79.5848L76.6673 7.14719H75.817V12.973ZM68.3427 21.7419C65.9726 21.7419 64.0887 23.5437 64.0887 26.0068C64.0887 28.4691 65.9726 30.2708 68.3427 30.2708C70.7128 30.2708 72.5958 28.4691 72.5958 26.0068C72.5958 23.5437 70.6526 21.7419 68.3427 21.7419ZM68.3427 28.5886C67.0664 28.5886 65.9726 27.5075 65.9726 26.0068C65.9726 24.445 67.0673 23.4242 68.3427 23.4242C69.619 23.4242 70.7128 24.445 70.7128 26.0059C70.7128 27.5075 69.6181 28.5886 68.3418 28.5886H68.3427ZM59.0456 21.7419C56.6746 21.7419 54.7916 23.5437 54.7916 26.0068C54.7916 28.4691 56.6755 30.2708 59.0456 30.2708C61.4157 30.2708 63.2987 28.4691 63.2987 26.0068C63.2987 23.5437 61.4148 21.7419 59.0456 21.7419ZM59.0456 28.5886C57.7684 28.5886 56.6746 27.5075 56.6746 26.0068C56.6746 24.445 57.7693 23.4242 59.0456 23.4242C60.321 23.4242 61.4157 24.445 61.4157 26.0059C61.4157 27.5075 60.321 28.5886 59.0456 28.5886ZM47.9851 23.0629V24.8646H52.2993C52.1779 25.8864 51.813 26.6071 51.3277 27.1472C50.7192 27.7475 49.7467 28.4691 47.9851 28.4691C45.3121 28.4691 43.2458 26.307 43.2458 23.6641C43.2458 21.0212 45.3112 18.8591 47.9851 18.8591C49.4438 18.8591 50.4756 19.4001 51.2054 20.1199L52.4817 18.8591C51.3879 17.8382 49.9903 17.0573 47.9842 17.0573C44.3387 17.0573 41.3008 20.0004 41.3008 23.6641C41.3008 27.3278 44.3387 30.2708 47.9851 30.2708C49.9292 30.2708 51.449 29.6094 52.604 28.4089C53.8182 27.2074 54.1831 25.5261 54.1831 24.2042C54.1831 23.7845 54.1229 23.4232 54.0618 23.0638H47.9851V23.0629ZM93.134 24.445C92.77 23.4844 91.6762 21.7419 89.4885 21.7419C87.3009 21.7419 85.4781 23.4844 85.4781 26.0068C85.4781 28.4089 87.3009 30.2708 89.671 30.2708C90.3667 30.2767 91.0529 30.1096 91.668 29.7846C92.2832 29.4596 92.8079 28.9869 93.1951 28.4089L91.7373 27.4473C91.2511 28.168 90.5823 28.6488 89.671 28.6488C88.6994 28.6488 88.0307 28.2282 87.6047 27.388L93.2563 25.0453L93.1349 24.445H93.134ZM87.362 25.8864C87.3009 24.2644 88.6374 23.4232 89.5496 23.4232C90.2795 23.4232 90.9473 23.7836 91.1297 24.3246L87.362 25.8855V25.8864ZM82.7431 30.03H84.6279V17.477H82.7431V30.03ZM79.7052 22.7035H79.645C79.2189 22.2227 78.4289 21.7419 77.3962 21.7419C75.2697 21.7419 73.3247 23.6039 73.3247 26.0068C73.3247 28.4089 75.2697 30.2708 77.3962 30.2708C78.4289 30.2708 79.2189 29.7901 79.645 29.3093H79.7052V29.9096C79.7052 31.5316 78.8549 32.432 77.4564 32.432C76.3024 32.432 75.6337 31.5918 75.3308 30.9313L73.6896 31.5918C74.1749 32.7322 75.391 34.1143 77.4573 34.1143C79.645 34.1143 81.4677 32.8526 81.4677 29.6696V22.043H79.7052V22.7035ZM77.5787 28.5886C76.3024 28.5886 75.2085 27.5075 75.2085 26.0068C75.2085 24.5052 76.3033 23.4242 77.5787 23.4242C78.8549 23.4242 79.8274 24.5052 79.8274 26.0059C79.8274 27.5075 78.8549 28.5886 77.5777 28.5886H77.5787ZM101.886 17.477H97.4491V30.03H99.333V25.2861H101.946C104.012 25.2861 106.017 23.7845 106.017 21.3816C105.957 18.9795 103.952 17.477 101.885 17.477H101.886ZM101.946 23.5437H99.2728V19.2194H101.946C103.343 19.2194 104.133 20.3607 104.133 21.3816C104.133 22.3422 103.343 23.5437 101.946 23.5437ZM113.431 21.7419C112.094 21.7419 110.696 22.3422 110.089 23.6632L111.729 24.3848C112.094 23.6641 112.762 23.4844 113.43 23.4844C114.403 23.4844 115.375 24.0837 115.375 25.1055V25.2259C114.774 24.914 114.108 24.7492 113.43 24.7451C111.669 24.7451 109.845 25.7058 109.845 27.5677C109.845 29.25 111.305 30.3301 112.944 30.3301C114.221 30.3301 114.889 29.7901 115.315 29.1287H115.375V30.0902H117.198V25.2852C117.198 23.0036 115.557 21.7419 113.43 21.7419H113.431ZM113.189 28.5886C112.58 28.5886 111.729 28.2875 111.729 27.5075C111.729 26.5469 112.762 26.1856 113.674 26.1856C114.464 26.1856 114.889 26.3663 115.375 26.6062C115.317 27.1474 115.062 27.6483 114.659 28.0138C114.256 28.3793 113.732 28.5839 113.188 28.5886H113.189ZM123.761 21.9827L121.634 27.3871H121.574L119.386 21.9827H117.381L120.723 29.5501L118.839 33.7539H120.784L125.888 21.9827H123.761ZM106.99 30.0291H108.874V17.4788H106.99V30.0309V30.0291Z" fill="white"/>
<path d="M10.8096 32.4321C10.5058 32.0681 10.3844 31.6439 10.3242 31.2197V8.91066C10.3242 8.42624 10.4456 7.94091 10.8086 7.5769C10.8698 7.5769 10.93 7.63803 10.9911 7.69824L20.2663 16.9734L23.1154 19.8225L23.2978 20.0049C23.2978 20.1263 23.1756 20.1865 23.1154 20.2467L17.3561 26.006C16.0835 27.2795 14.7497 28.5521 13.4762 29.8859C12.6879 30.7343 11.8395 31.5225 11.0513 32.3719C10.93 32.3719 10.8689 32.4321 10.8086 32.4321H10.8096Z" fill="#01D4FE"/>
<path d="M10.8329 32.4332L14.2266 29.0386L23.1387 20.1274L23.2601 20.0061H23.3203C23.3814 20.0061 23.4416 20.0663 23.5027 20.1274L27.3818 24.0065C27.4429 24.0676 27.5642 24.1278 27.5031 24.2491C26.4722 24.8558 25.5025 25.4014 24.4725 26.0071C21.6234 27.6437 18.7744 29.2813 15.9244 30.8568C14.9546 31.4024 13.9238 32.009 12.954 32.5537C12.5909 32.7972 12.1658 32.9186 11.7416 32.8574C11.3174 32.7972 11.0756 32.675 10.832 32.4332H10.8329Z" fill="#FE3A44"/>
<path d="M23.2601 20.0059C20.5926 17.3383 17.925 14.731 15.3186 12.0644L10.9534 7.69915C10.8932 7.63894 10.832 7.63894 10.832 7.57782C11.1969 7.15361 11.6805 7.0934 12.2269 7.21473C12.6511 7.33607 13.0753 7.57782 13.4393 7.76028L18.5317 10.6705C20.1683 11.5791 21.805 12.5498 23.4416 13.4584C24.7754 14.2466 26.1091 14.9737 27.4429 15.7619C27.5031 15.823 27.3818 15.8833 27.3818 15.9444L23.4416 19.8845C23.3814 19.9447 23.3203 20.0059 23.2592 20.0059H23.2601Z" fill="#03EE76"/>
<path d="M23.2539 20.0057C23.3141 19.9445 23.3752 19.8843 23.3752 19.8232L27.3154 15.8831C27.3756 15.8228 27.4367 15.8228 27.4367 15.7617C29.0734 16.7315 30.7711 17.641 32.4078 18.6108C32.832 18.8534 33.196 19.2174 33.3173 19.7019C33.4377 20.127 33.2562 20.5503 33.0135 20.8541C32.8311 21.0968 32.5893 21.2783 32.3476 21.3996C30.71 22.3092 29.1336 23.2187 27.4969 24.1274C27.4969 24.1274 27.4367 24.1274 27.4367 24.1885C27.4367 24.1274 27.3756 24.0672 27.3154 24.006C26.0418 22.6723 24.709 21.3996 23.3743 20.0659C23.3141 20.0659 23.3141 20.0057 23.2539 20.0057Z" fill="#FED504"/>
</svg>
