<!-- Generated by IcoMoon.io -->
<svg version="1.1" xmlns="http://www.w3.org/2000/svg" width="32" height="32" viewBox="0 0 32 32">
<path fill="#fff" d="M27.979 13.581c-0.004-0.427-0.008-0.854-0.011-1.281-0.010-1.17-0.047-2.346-0.205-3.513-0.333-2.427-1.873-4.074-4.279-4.516-0.594-0.11-1.2-0.204-1.8-0.207-0.936-0.006-1.872-0.018-2.808-0.030-3.221-0.041-6.443-0.082-9.662 0.127-2.736 0.179-4.602 1.944-4.99 4.649-0.141 0.996-0.189 2.003-0.196 3-0.002 0.419-0.006 0.838-0.009 1.257-0.023 3.085-0.045 6.17 0.097 9.254 0.152 3.295 2.091 5.305 5.346 5.554 1.337 0.102 2.672 0.101 4.008 0.101 0.837 0 1.673 0 2.51 0.025 0.821-0.022 1.642-0.023 2.463-0.023 1.427-0.001 2.854-0.002 4.28-0.115 2.458-0.194 4.244-1.562 4.869-3.83 0.16-0.603 0.255-1.222 0.285-1.847 0.157-2.866 0.131-5.736 0.105-8.604l-0.002-0.001zM15.756 23.991c-4.192-0.015-7.579-3.424-7.565-7.616s3.424-7.579 7.616-7.566c4.187 0.003 7.59 3.426 7.575 7.615-0.014 4.188-3.42 7.57-7.625 7.566zM24.866 9.845c-0.347 0.339-0.815 0.527-1.301 0.521-0.989-0.018-1.785-0.821-1.795-1.811-0.007-0.991 0.835-1.809 1.853-1.8v0.001h0.001c0.991 0.005 1.793 0.808 1.794 1.8-0.006 0.486-0.205 0.949-0.552 1.289z"></path>
<path fill="#fff" d="M20.63 16.031c0 2.485-2.015 4.5-4.5 4.5s-4.5-2.015-4.5-4.5c0-2.485 2.015-4.5 4.5-4.5s4.5 2.015 4.5 4.5z"></path>
</svg>
