<svg width="18" height="18" viewBox="0 0 18 18" fill="none" xmlns="http://www.w3.org/2000/svg">
<path d="M8.30751 1.66495C8.56371 1.04898 9.43629 1.04898 9.69249 1.66495L11.2046 5.30051C11.3126 5.56019 11.5568 5.73761 11.8372 5.76009L15.7621 6.07475C16.4271 6.12806 16.6967 6.95794 16.19 7.39194L13.1997 9.9535C12.9861 10.1365 12.8928 10.4235 12.9581 10.6971L13.8717 14.5271C14.0265 15.1761 13.3205 15.689 12.7512 15.3412L9.39094 13.2888C9.15093 13.1422 8.84907 13.1422 8.60906 13.2888L5.2488 15.3412C4.67947 15.689 3.97354 15.1761 4.12833 14.5271L5.04193 10.6971C5.10719 10.4235 5.01391 10.1365 4.80032 9.9535L1.80996 7.39194C1.3033 6.95794 1.57295 6.12806 2.23794 6.07475L6.16284 5.76009C6.44318 5.73761 6.68739 5.56019 6.79539 5.30051L8.30751 1.66495Z" fill="#82E600"/>
</svg>
