<!-- Generated by IcoMoon.io -->
<svg version="1.1" xmlns="http://www.w3.org/2000/svg" width="32" height="32" viewBox="0 0 32 32">
<path fill="#fff" d="M11.824 21.36c0.018 0.016 0.036 0.032 0.054 0.049 0.164 0.118 0.283 0.283 0.441 0.411 0.49 0.393 1.040 0.606 1.671 0.645 1.496 0.092 2.799-1.033 2.968-2.512 0.008-0.072 0.005-0.145 0.005-0.216v-13.36q0-0.3 0.3-0.3c0.677 0 1.353-0.001 2.029 0.001 0.063 0 0.13-0.012 0.188 0.028 0.004 0.003 0.008 0.007 0.013 0.009 0.032 0.033 0.041 0.076 0.051 0.12 0.259 1.2 0.891 2.158 1.881 2.88 0.063 0.045 0.114 0.101 0.174 0.15 0.043 0.036 0.086 0.073 0.13 0.11 0.030-0.002 0.053 0.016 0.076 0.029 0.501 0.286 1.036 0.474 1.603 0.568 0.222 0.036 0.446 0.061 0.671 0.059 0.094-0.001 0.097 0.002 0.096 0.092v0.128l-0.005 0.498 0.005 0.004v3.435l-0.068-0.009c-0.652-0.086-1.288-0.246-1.901-0.485-0.587-0.23-1.14-0.522-1.66-0.879-0.032-0.022-0.065-0.042-0.116-0.074v0.145c0 2.251 0.002 4.502-0.001 6.753-0.001 1.199-0.311 2.314-0.952 3.331-0.773 1.228-1.846 2.093-3.21 2.587-0.828 0.302-1.684 0.417-2.564 0.352-1.484-0.11-2.768-0.677-3.862-1.683-0.029-0.027-0.054-0.058-0.081-0.087-0.053-0.046-0.104-0.092-0.155-0.138-0.392-0.324-0.665-0.744-0.919-1.173-0.392-0.661-0.647-1.376-0.771-2.135-0.070-0.434-0.107-0.871-0.083-1.31 0.078-1.415 0.554-2.678 1.466-3.77 1.528-1.827 3.457-2.421 5.645-2.179 0.049 0.006 0.062 0.028 0.061 0.070-0.001 0.025 0 0.048 0 0.073 0 1.067 0 2.133-0.001 3.2 0 0.039 0.010 0.081-0.015 0.123-0.141-0.027-0.279-0.069-0.422-0.089-0.824-0.116-1.567 0.077-2.22 0.592-0.574 0.452-0.926 1.046-1.045 1.765-0.126 0.763 0.032 1.471 0.471 2.112 0.019 0.026 0.034 0.053 0.051 0.081z"></path>
</svg>
