<?xml version="1.0" encoding="iso-8859-1"?>
<!-- Uploaded to: SVG Repo, www.svgrepo.com, Generator: SVG Repo Mixer Tools -->
<svg height="800px" width="800px" version="1.1" id="Layer_1" xmlns="http://www.w3.org/2000/svg" xmlns:xlink="http://www.w3.org/1999/xlink" 
	 viewBox="0 0 512 512" xml:space="preserve">
<path style="fill:#FFE100;" d="M401.073,358.4c-23.893-26.453-40.96-50.347-52.053-69.973C330.246,256,328.54,217.6,340.486,181.76
	c9.387-27.307,9.387-53.76,9.387-53.76c0-68.267-8.533-119.467-8.533-119.467h-34.133c-28.16,40.107-41.813,98.987-47.787,133.12
	c-0.853,4.267-6.827,4.267-7.68,0c-5.12-34.133-18.773-93.013-46.933-133.12h-34.133c0,0-8.533,51.2-8.533,119.467
	c0,0,0,26.453,9.387,54.613c11.947,34.987,10.24,74.24-8.533,106.667c-11.093,19.627-28.16,42.667-52.053,69.973
	c0,0-43.52,57.173-17.067,93.013c4.267,5.973,7.68,12.8,9.387,20.48c4.267,11.947,18.773,30.72,75.947,30.72h76.8h76.8
	c57.173,0,71.68-18.773,75.947-31.573c2.56-6.827,5.12-13.653,9.387-20.48C444.593,415.573,401.073,358.4,401.073,358.4"/>
<path style="fill:#63D3FD;" d="M178.353,213.333c0.853,11.093,0.853,23.04-0.853,34.133h156.16
	c-1.707-11.093-1.707-23.04-0.853-34.133H178.353z"/>
<path style="fill:#FFA800;" d="M401.073,358.4c-23.893-26.453-40.96-50.347-52.053-69.973C330.246,256,328.54,217.6,340.486,181.76
	c9.387-27.307,9.387-53.76,9.387-53.76c0-68.267-8.533-119.467-8.533-119.467h-25.6c0,0,8.533,51.2,8.533,119.467
	c0,0,0,26.453-9.387,54.613c-11.947,34.987-10.24,74.24,8.533,106.667c11.093,19.627,28.16,42.667,52.053,69.973
	c0,0,43.52,57.173,17.067,93.013c-4.267,5.973-7.68,12.8-9.387,20.48c-3.413,11.947-18.773,30.72-75.947,30.72h25.6
	c57.173,0,71.68-18.773,75.947-31.573c2.56-6.827,5.12-13.653,9.387-20.48C444.593,415.573,401.073,358.4,401.073,358.4"/>
<path style="fill:#3DB9F9;" d="M333.66,213.333h-25.6c-0.853,11.093-0.853,23.04,0.853,34.133h25.6
	C332.806,236.373,331.953,224.427,333.66,213.333"/>
<path style="fill:#FFFFFF;" d="M110.94,358.4c23.893-26.453,40.96-50.347,52.053-69.973c18.773-32.427,20.48-70.827,8.533-106.667
	C162.14,154.453,162.14,128,162.14,128c0-68.267,8.533-119.467,8.533-119.467h25.6c0,0-8.533,51.2-8.533,119.467
	c0,0,0,26.453,9.387,54.613c11.947,34.987,10.24,74.24-8.533,106.667c-11.093,19.627-28.16,42.667-52.053,69.973
	c0,0-43.52,57.173-17.067,93.013c4.267,5.973,7.68,12.8,9.387,20.48c3.413,11.947,18.773,30.72,75.947,30.72h-25.6
	c-57.173,0-71.68-18.773-75.947-31.573c-2.56-6.827-5.12-13.653-9.387-20.48C67.42,415.573,110.94,358.4,110.94,358.4"/>
<path d="M116.06,497.493c-2.56,0-5.12-1.707-6.827-3.413c-2.56-4.267-1.707-9.387,2.56-11.947
	c23.893-16.213,59.733-58.88,59.733-89.6c0-5.12,3.413-8.533,8.533-8.533s8.533,3.413,8.533,8.533
	c0,37.547-39.253,85.333-67.413,103.253C119.473,496.64,117.766,497.493,116.06,497.493z"/>
<path d="M395.953,497.493c-1.707,0-3.413-0.853-5.12-1.707c-26.453-17.92-66.56-65.707-66.56-103.253
	c0-5.12,3.413-8.533,8.533-8.533c5.12,0,8.533,3.413,8.533,8.533c0,29.867,34.987,73.387,59.733,89.6
	c4.267,2.56,5.12,7.68,2.56,11.947C401.926,495.787,399.366,497.493,395.953,497.493z"/>
<path d="M204.806,512c-0.853,0-1.707,0-1.707,0c-4.267-0.853-7.68-5.973-5.973-10.24c0.853-4.267,1.707-7.68,3.413-11.093
	c2.56-10.24,5.12-17.92,5.12-29.013c0-5.12,3.413-8.533,8.533-8.533c5.12,0,8.533,3.413,8.533,8.533
	c0,13.653-2.56,23.893-5.973,34.133c-0.853,3.413-1.707,6.827-3.413,11.093C212.486,509.44,209.073,512,204.806,512z"/>
<path d="M307.206,512c-3.413,0-7.68-2.56-8.533-6.827s-1.707-7.68-3.413-11.093c-2.56-10.24-5.973-19.627-5.973-34.133
	c0-5.12,3.413-8.533,8.533-8.533s8.533,3.413,8.533,8.533c0,11.093,2.56,19.627,5.12,29.013c0.853,3.413,2.56,7.68,3.413,11.093
	c0.853,4.267-1.707,9.387-5.973,10.24C308.913,512,308.06,512,307.206,512z"/>
<path d="M332.806,512h-153.6c-59.733,0-78.507-20.48-83.627-37.547c-1.707-6.827-5.12-12.8-8.533-17.92
	c-29.013-40.107,15.36-100.693,17.067-103.253c22.187-23.893,39.253-46.933,52.053-69.12c17.067-29.013,19.627-64.853,7.68-98.987
	c-10.24-29.013-10.24-56.32-10.24-57.173c0-68.267,8.533-118.613,8.533-121.173C162.993,3.413,166.406,0,170.673,0h34.133
	c2.56,0,5.12,1.707,6.827,3.413c23.893,33.28,36.693,78.507,44.373,112.64c7.68-34.133,20.48-79.36,44.373-112.64
	C302.086,1.707,304.646,0,307.206,0h34.133c4.267,0,7.68,3.413,8.533,6.827c0,2.56,8.533,52.907,8.533,121.173
	c0,0.853,0,28.16-10.24,57.173c-11.947,34.133-9.387,69.973,7.68,98.987c12.8,21.333,29.867,44.373,51.2,68.267
	c2.56,3.413,46.933,64,17.92,104.107c-3.413,5.12-5.973,11.093-8.533,17.92C412.166,491.52,393.393,512,332.806,512z
	 M117.766,364.373c0,0-38.4,52.053-17.067,82.773c4.267,6.827,8.533,14.507,11.093,23.04c5.12,16.213,29.867,25.6,67.413,25.6h153.6
	c38.4,0,63.147-9.387,67.413-25.6c2.56-8.533,5.973-16.213,11.093-23.04c21.333-29.867-17.067-82.773-17.067-83.627
	c-22.187-23.893-40.107-47.787-52.907-70.827c-19.627-33.28-23.04-74.24-9.387-113.493c9.387-25.6,9.387-51.2,9.387-51.2
	c0-52.053-5.12-94.72-7.68-110.933h-22.187c-26.453,39.253-38.4,95.573-43.52,126.293c-0.853,5.973-5.973,10.24-11.947,10.24
	c-5.973,0-11.093-4.267-11.947-10.24c-5.12-30.72-17.067-87.04-43.52-126.293h-22.187c-2.56,16.213-7.68,58.88-7.68,110.933
	c0,0,0,25.6,9.387,52.053c13.653,39.253,10.24,80.213-9.387,113.493C157.873,315.733,139.953,339.627,117.766,364.373
	L117.766,364.373z"/>
<path d="M334.513,256h-156.16c-2.56,0-5.12-0.853-6.827-3.413c-1.707-1.707-2.56-4.267-1.707-6.827
	c1.707-10.24,1.707-21.333,0.853-31.573c0-2.56,0.853-5.12,2.56-6.827s4.267-2.56,5.973-2.56H333.66c2.56,0,5.12,0.853,5.973,2.56
	c0.853,1.707,2.56,4.267,2.56,6.827c-0.853,11.093-0.853,21.333,0.853,31.573c0,2.56,0,5.12-1.707,6.827
	C338.78,255.147,337.073,256,334.513,256z M187.74,238.933h136.533c-0.853-5.973-0.853-11.093,0-17.067H187.74
	C188.593,227.84,187.74,232.96,187.74,238.933z"/>
</svg>