<?xml version="1.0" encoding="iso-8859-1"?>
<!-- Uploaded to: SVG Repo, www.svgrepo.com, Generator: SVG Repo Mixer Tools -->
<!DOCTYPE svg PUBLIC "-//W3C//DTD SVG 1.1//EN" "http://www.w3.org/Graphics/SVG/1.1/DTD/svg11.dtd">
<svg fill="#000000" height="800px" width="800px" version="1.1" id="Capa_1" xmlns="http://www.w3.org/2000/svg" xmlns:xlink="http://www.w3.org/1999/xlink" 
	 viewBox="0 0 397.193 397.193" xml:space="preserve">
<g>
	<g>
		<path d="M300.596,223.589c-0.568-0.055-57.137-5.583-82.148-20.338c-28.171-16.619-40.686-11.436-50.745-7.271l-0.933,0.385
			c-5.554,2.281-10.897,8.247-17.085,15.158c-6.052,6.758-12.91,14.415-18.739,16.664c-0.002,0.001-0.004,0.001-0.005,0.002
			c-5.831,2.246-16.059,1.166-25.083,0.215c-9.221-0.973-17.188-1.815-22.837,0.221l-0.949,0.34
			c-10.252,3.658-23.012,8.211-32.756,39.436c-8.63,27.66-47.273,68.479-47.662,68.887c-2.284,2.4-2.191,6.199,0.209,8.483
			c0.621,0.591,1.339,1.011,2.097,1.285l-0.004,0.011c3.618,1.311,88.904,32.115,114.324,33.307
			c8.963,0.42,18.032,0.846,26.894,0.846c15.319,0,30.008-1.271,42.382-6.038c0.002,0,0.004,0,0.005-0.001
			c19.534-7.525,37.493-25.369,54.861-42.625c17.979-17.863,60.808-96.324,62.855-100.085c0.388-0.701,0.643-1.49,0.724-2.339
			C306.314,226.832,303.894,223.903,300.596,223.589z M60.771,271.974c7.961-25.509,16.793-28.66,25.334-31.709l0.982-0.352
			c3.06-1.101,10.737-0.291,17.511,0.424c10.373,1.094,22.129,2.334,30.655-0.949c0.011-0.004,0.021-0.01,0.032-0.014
			c8.516-3.295,16.389-12.088,23.338-19.847c4.545-5.075,9.696-10.827,12.705-12.063l0.966-0.398
			c8.377-3.47,17.039-7.059,40.056,6.52c18.848,11.119,52.002,17.232,71.545,20.03c-14.485,9.448-38.999,23.005-58.927,21.823
			c-30.435-1.798-61.423-2.157-78.252,13.695c-23.11-0.479-45.856,20.587-67.224,42.34c-13.998,14.249-41.541,20.119-58.717,22.466
			C33.553,319.096,54.248,292.883,60.771,271.974z M192.797,266.81c-12.725,6.39-26.783,15.727-35.965,28.6
			c-15.447-3.388-32.135-0.879-45.856,2.919c13.989-11.647,26.294-18.225,37.495-17.087c0,0,0.402,0.03,0.604,0.03
			c1.639,0,3.271-0.667,4.455-1.979C161.077,270.933,174.612,267.557,192.797,266.81z M233.963,324.043
			c-17.247,17.135-33.537,33.321-50.718,39.939c-0.001,0-0.003,0.001-0.004,0.002c-17.18,6.614-40.115,5.539-64.4,4.402
			c-15.666-0.734-58.908-14.698-86.51-24.111c18.313-3.381,41.888-10.309,55.721-24.391c0.017-0.017,0.033-0.033,0.049-0.05
			c5.746-2.859,42.131-20.061,69.654-11.805l0.002-0.007c0.564,0.17,1.141,0.261,1.716,0.261c2.03,0,4.012-1.031,5.14-2.895
			c14.87-24.581,53.385-36.235,59.574-37.973c0.024,0.001,0.049,0.002,0.073,0.004c19.801,1.168,42.239-9.279,58.228-18.759
			C268.205,273.798,245.152,312.925,233.963,324.043z"/>
		<path d="M395.081,123.336c-0.377-0.321-37.885-32.402-48.307-55.269c-11.979-26.28-24.21-28.986-33.141-30.961l-0.861-0.191
			c-5.274-1.182-12.15,0.43-20.109,2.296c-7.615,1.786-16.245,3.811-21.35,2.546c-5.105-1.262-11.795-7.075-17.697-12.203
			c-6.173-5.362-11.503-9.993-16.724-11.407l-0.848-0.231c-8.822-2.417-20.906-5.723-43.756,11.943
			c-19.828,15.332-67.629,25.155-68.109,25.253v0.001c-0.789,0.16-1.561,0.479-2.261,0.972c-2.71,1.907-3.361,5.649-1.455,8.359
			c1.932,2.747,47.521,67.418,65.172,81.03c16.954,13.077,34.484,26.6,52.354,31.019c5.745,1.421,11.898,1.993,18.307,1.993
			c13.515,0,28.159-2.544,42.472-5.031c21.929-3.811,92.124-38.697,95.102-40.18l-0.003-0.006c0.704-0.351,1.354-0.839,1.896-1.477
			C397.911,129.27,397.605,125.483,395.081,123.336z M296.713,161.633c-20.791,3.613-40.427,7.025-55.843,3.212
			c-15.419-3.813-31.198-15.985-47.905-28.872c-9.797-7.556-31.715-35.962-47.887-57.922c14.57,6.35,33.626,12.266,49.71,9.296
			c5.757,0.87,39.756,6.743,55.023,26.043c1.184,1.497,2.938,2.277,4.71,2.277c0.822,0,1.642-0.188,2.416-0.531l0.008,0.018
			c22.503-9.959,55.313,0.69,60.818,2.606c12.933,10.193,32.682,14.123,48.509,15.56
			C340.733,145.414,308.884,159.518,296.713,161.633z M256.657,89.73c2.377,2.008,4.811,1.406,5.263,1.302
			c8.621-1.986,18.808,1.532,30.699,8.728c-11.446-1.341-24.547-1.258-36.322,2.796c-8.525-9.081-20.082-15.267-30.84-19.416
			C239.317,82.318,249.902,84.023,256.657,89.73z M325.15,108.307c-20.866-16.501-42.855-32.243-63.001-29.489
			c-16.541-11.832-43.331-8.151-69.482-3.278c-16.163,3.01-37.354-5.531-50.843-12.277c16.768-4.386,43.196-12.612,57.806-23.91
			c18.116-14.006,25.808-11.9,33.246-9.863l0.881,0.241c2.565,0.694,7.791,5.234,11.99,8.883
			c6.926,6.017,14.775,12.836,22.687,14.793c7.916,1.958,18.037-0.418,26.97-2.513c5.413-1.27,12.15-2.849,14.746-2.27l0.893,0.199
			c7.53,1.666,15.317,3.388,24.813,24.221c7.655,16.794,27.094,36.862,39.777,48.866C360.614,121.274,338.066,118.52,325.15,108.307
			z"/>
	</g>
</g>
</svg>