<!DOCTYPE svg PUBLIC "-//W3C//DTD SVG 1.1//EN" "http://www.w3.org/Graphics/SVG/1.1/DTD/svg11.dtd">
<!-- Uploaded to: SVG Repo, www.svgrepo.com, Transformed by: SVG Repo Mixer Tools -->
<svg fill="#000000" width="800px" height="800px" viewBox="0 0 24 24" id="sunset" data-name="Flat Color" xmlns="http://www.w3.org/2000/svg" class="icon flat-color">
<g id="SVGRepo_bgCarrier" stroke-width="0"/>
<g id="SVGRepo_tracerCarrier" stroke-linecap="round" stroke-linejoin="round"/>
<g id="SVGRepo_iconCarrier">
<circle id="primary" cx="12" cy="14" r="5" style="fill: #000000;"/>
<path id="secondary" d="M21,15H20a1,1,0,0,1,0-2h1a1,1,0,0,1,0,2ZM4,15H3a1,1,0,0,1,0-2H4a1,1,0,0,1,0,2ZM17.66,9.34A1,1,0,0,1,17,9.05a1,1,0,0,1,0-1.41l.71-.71a1,1,0,1,1,1.41,1.41l-.71.71A1,1,0,0,1,17.66,9.34Zm-11.32,0a1,1,0,0,1-.7-.29l-.71-.71A1,1,0,0,1,6.34,6.93l.71.71a1,1,0,0,1,0,1.41A1,1,0,0,1,6.34,9.34ZM12,7a1,1,0,0,1-1-1V5a1,1,0,0,1,2,0V6A1,1,0,0,1,12,7ZM22,18a1,1,0,0,0-1-1H3a1,1,0,0,0,0,2H21A1,1,0,0,0,22,18Z" style="fill: #000000;"/>
</g>
</svg>