<!DOCTYPE svg PUBLIC "-//W3C//DTD SVG 1.1//EN" "http://www.w3.org/Graphics/SVG/1.1/DTD/svg11.dtd">
<!-- Uploaded to: SVG Repo, www.svgrepo.com, Transformed by: SVG Repo Mixer Tools -->
<svg version="1.1" id="Uploaded to svgrepo.com" xmlns="http://www.w3.org/2000/svg" xmlns:xlink="http://www.w3.org/1999/xlink" width="800px" height="800px" viewBox="0 0 64 64" xml:space="preserve" fill="#000000">
<g id="SVGRepo_bgCarrier" stroke-width="0"/>
<g id="SVGRepo_tracerCarrier" stroke-linecap="round" stroke-linejoin="round"/>
<g id="SVGRepo_iconCarrier"> <style type="text/css"> .fandom_drie{fill:#0d0d0d;} .fandom_vier{fill:#0d0d0d;} .fandom_negen{fill:#ffffff;} .fandom_tien{fill:#ffffff;} .st0{fill:#FF786E;} .st1{fill:#BE5652;} .st2{fill:#EFEAE0;} .st3{fill:#AA9991;} .st4{fill:#FFFAFA;} .st5{fill:#644638;} .st6{fill:#6BC4D2;} .st7{fill:#508D9B;} .st8{fill:#4B322A;} .st9{fill:#4D4D4D;} .st10{fill:#3A3A3A;} .st11{fill:#808080;} .st12{fill:#CCCCCC;} .st13{fill:#666666;} .st14{fill:#018273;} .st15{fill:#00B3AA;} </style> <g> <g> <path class="fandom_tien" d="M32,7C18.193,7,7,18.193,7,32h50C57,18.193,45.807,7,32,7z"/> <path class="fandom_negen" d="M32,57c13.807,0,25-11.193,25-25H7C7,45.807,18.193,57,32,57z"/> </g> <g> <path class="fandom_vier" d="M55.714,13.777c-2.784,2.527-3.179,3.685-11.67,18.964c-1.434,2.579-3.112,4.66-5.716,6.416 c1.685,0.738,3.49,0.789,4.44,0.751c0.416-0.017,0.793,0.223,0.957,0.606l0.676,1.585c0.77,1.861-5.787,5.469-11.103,7.184 c-1.153-1.932-1.031-3.036-0.323-5.448c1.019-3.472-1.706-6.068-4.482-6.702c-2.798-0.638-8.567,0.289-6.999-4.497 c0.182-0.556,0.219-1.079,0.158-1.566c3.937,1.071,8.139,0.052,11.155-2.754c-5.695,1.421-10.02-0.546-9.337-4.316 c-1.369-0.016-2.472-1.132-2.47-2.504c0.003-1.381,1.124-2.498,2.505-2.495c1.423,0.003,2.566,1.193,2.492,2.631 c3.482-1.365,7.238-0.959,10.266,0.79c-0.028,0.114-0.058,0.228-0.089,0.342c4.508,0.529,8.135-2.118,11.128-5.58 c5.26-6.088,10.96-8.34,11.554-6.953C59.425,11.562,56.714,12.869,55.714,13.777z M18.23,31.454 c-2.735-3.568-6.136-4.345-9.93-2.62c-2.007,0.858-6.087,3.875-6.421,6.963c-0.097,0.895,0.248,1.756,0.248,1.756l3.849-0.309 c-0.551-0.176-1.176-0.548-1.115-1.123c0.157-1.453,2.947-3.814,4.622-4.53c3.616-1.545,5.459-0.046,7.309,3.094 C17.043,33.612,17.531,32.522,18.23,31.454z"/> <path class="fandom_drie" d="M58.82,10.179c0.004,0.002,0.008,0.004,0.013,0.006c0.704,1.299-2.118,2.685-3.118,3.592 c-2.784,2.527-3.179,3.685-11.67,18.964c-1.431,2.575-3.107,4.654-5.704,6.407c-0.003,0-0.007,0.001-0.01,0.001 c-1.218-0.871-1.674-2.895-0.169-4.132C46.948,27.791,47.629,14.441,58.82,10.179z M32.974,43.834 c1.019-3.472-1.706-6.101-4.482-6.734c-2.798-0.638-8.567,0.321-6.999-4.464c0.182-0.556,0.219-1.079,0.158-1.566 c3.937,1.071,8.139,0.052,11.155-2.754c-5.695,1.421-10.02-0.546-9.337-4.316c1.05,0.012,1.955-0.624,2.337-1.562 c-2.054,1.242-4.5-0.847-3.593-3.07c-0.783,0.474-1.283,1.353-1.206,2.328c0.073,0.935,0.652,1.708,1.446,2.075 c-1.817,1.634-3.09,3.801-3.654,6.112c0.142,0.082,0.286,0.161,0.431,0.237c-2.142,2.553-3.08,5.347-2.437,7.781 c-1.283-0.99-3.143-0.72-4.187-0.569c-1.944,0.269-4.708,0.526-6.631-0.088l-3.849,0.309c0.63,1.635,2.181,2.459,3.915,2.797 c2.299,0.449,4.561,0.264,6.469,0.024c2.023-0.255,2.442-0.505,2.632,0.495c-0.389-0.031-0.792,0.029-1.176,0.193 c-1.27,0.543-1.859,2.012-1.317,3.281s2.012,1.859,3.281,1.317c1.559-0.666,2.681-2.753,2.164-5.348 c2.137,2.402,6.303,3.359,10.984,2.572c-0.591,1.88-1.875,3.285-2.601,3.985c-0.299,0.289-0.387,0.727-0.224,1.11l0.677,1.584 c0.411,0.933,3.023,0.763,6.369-0.278C32.144,47.351,32.266,46.247,32.974,43.834z"/> </g> </g> </g>
</svg>